# Blender 3.6.4
# www.blender.org
mtllib pyramid.mtl
o Cone
v 0.000000 0.000000 -1.000000 0.0235 1.0000 0.0235
v 1.000000 0.000000 0.000000 1.0000 1.0000 1.0000
v 0.000000 0.000000 1.000000 0.0039 0.0039 1.0000
v -1.000000 0.000000 0.000000 0.3843 1.0000 0.3843
v 0.000000 2.000000 0.000000 0.0000 1.0000 0.0000
v 0.000000 0.000000 -1.000000 1.0000 0.0157 0.0157
v 0.000000 0.000000 -1.000000 1.0000 1.0000 1.0000
v 1.000000 0.000000 0.000000 1.0000 0.0157 0.0157
v 1.000000 0.000000 0.000000 1.0000 0.8784 0.0078
v 0.000000 2.000000 0.000000 1.0000 0.0000 0.0000
v 0.000000 2.000000 0.000000 1.0000 0.8784 0.0000
v 0.000000 2.000000 0.000000 0.0039 0.0039 1.0000
v 0.000000 0.000000 1.000000 1.0000 0.8784 0.0000
v 0.000000 0.000000 1.000000 1.0000 1.0000 1.0000
v -1.000000 0.000000 0.000000 1.0000 1.0000 1.0000
v -1.000000 0.000000 0.000000 0.0039 0.0039 1.0000
vn 0.6667 0.3333 -0.6667
vn 0.6667 0.3333 0.6667
vn -0.0000 -1.0000 -0.0000
vn -0.6667 0.3333 0.6667
vn -0.6667 0.3333 -0.6667
vt 0.000000 0.500000
vt 0.166667 -0.000000
vt 0.333333 0.500000
vt 0.500000 -0.000000
vt 0.666667 0.500000
vt 0.333333 0.833333
vt 0.666667 0.500000
vt 0.666667 0.833333
vt 0.000000 1.000000
vt 0.166667 0.500000
vt 0.333333 1.000000
vt 0.833333 -0.000000
vt 1.000000 0.500000
vt 0.333333 0.500000
s 0
f 6/1/1 10/2/1 8/3/1
f 9/3/2 11/4/2 13/5/2
f 2/6/3 15/7/3 7/8/3
f 3/9/4 12/10/4 16/11/4
f 4/5/5 5/12/5 1/13/5
f 2/6/3 14/14/3 15/7/3
